<svg width="24" height="24" fill="none" xmlns="http://www.w3.org/2000/svg"><g clip-path="url(#clip0)" fill-rule="evenodd" clip-rule="evenodd" fill="#fff"><path d="M.298 23.702a1.045 1.045 0 01.016-1.479L22.224.315A1.046 1.046 0 0123.701.3a1.045 1.045 0 01-.016 1.478l-21.91 21.91a1.045 1.045 0 01-1.478.015z"/><path d="M.298.298a1.045 1.045 0 00.016 1.479l21.91 21.909c.412.413 1.074.42 1.478.016a1.046 1.046 0 00-.016-1.479L1.776.314A1.045 1.045 0 00.299.298z"/></g><defs><clipPath id="clip0"><path fill="#fff" d="M0 0h24v24H0z"/></clipPath></defs></svg>